<svg width="15" height="12" viewBox="0 0 15 12" fill="none" xmlns="http://www.w3.org/2000/svg">
<path d="M12.2706 10.8364H9.96619C9.78513 10.8364 9.63699 10.6882 9.63699 10.507V9.40915C9.63699 9.228 9.78513 9.07979 9.96619 9.07979H12.2706C12.7561 9.07979 13.1484 8.6873 13.1484 8.2015V2.93175C13.1484 2.44594 12.7561 2.05346 12.2706 2.05346H9.96619C9.78513 2.05346 9.63699 1.90525 9.63699 1.7241V0.626234C9.63699 0.445087 9.78513 0.296875 9.96619 0.296875H12.2706C13.7245 0.296875 14.9041 1.47708 14.9041 2.93175V8.2015C14.9041 9.65617 13.7245 10.8364 12.2706 10.8364ZM10.9812 5.3196L6.37245 0.708574C5.96095 0.296875 5.24769 0.585064 5.24769 1.17517V3.81004H1.51679C1.15193 3.81004 0.858398 4.10372 0.858398 4.46876V7.10363C0.858398 7.46867 1.15193 7.76235 1.51679 7.76235H5.24769V10.3972C5.24769 10.9873 5.96095 11.2755 6.37245 10.8638L10.9812 6.25279C11.2363 5.99479 11.2363 5.5776 10.9812 5.3196Z" fill="#FEEB10"/>
</svg>
