<svg width="18" height="16" viewBox="0 0 18 16" fill="none" xmlns="http://www.w3.org/2000/svg">
<path d="M12.0417 2.55406L14.7272 5.22034C14.8403 5.33267 14.8403 5.51594 14.7272 5.62826L8.22483 12.0841L5.46191 12.3886C5.09273 12.4299 4.78012 12.1196 4.8218 11.753L5.12846 9.00989L11.6308 2.55406C11.744 2.44174 11.9286 2.44174 12.0417 2.55406ZM16.8649 1.87715L15.412 0.434636C14.9594 -0.0146704 14.224 -0.0146704 13.7685 0.434636L12.7146 1.48105C12.6014 1.59337 12.6014 1.77664 12.7146 1.88897L15.4001 4.55525C15.5132 4.66758 15.6978 4.66758 15.8109 4.55525L16.8649 3.50884C17.3174 3.05658 17.3174 2.32645 16.8649 1.87715ZM11.4879 10.3282V13.3374H1.96063V3.87833H8.80242C8.89769 3.87833 8.98701 3.83991 9.05549 3.77488L10.2464 2.59249C10.4727 2.36784 10.3119 1.98652 9.99333 1.98652H1.48427C0.695291 1.98652 0.0551758 2.62205 0.0551758 3.40538V13.8104C0.0551758 14.5937 0.695291 15.2292 1.48427 15.2292H11.9643C12.7533 15.2292 13.3934 14.5937 13.3934 13.8104V9.14586C13.3934 8.82958 13.0093 8.67291 12.783 8.8946L11.5921 10.077C11.5266 10.145 11.4879 10.2337 11.4879 10.3282Z" fill="#FF5C00"/>
</svg>
