<svg width="13" height="11" viewBox="0 0 13 11" fill="none" xmlns="http://www.w3.org/2000/svg">
<path d="M12.2846 3.96669C12.3768 3.8934 12.514 3.96197 12.514 4.07782V8.91283C12.514 9.53937 12.0056 10.0477 11.3791 10.0477H1.54356C0.917018 10.0477 0.408691 9.53937 0.408691 8.91283V4.08018C0.408691 3.96197 0.543457 3.89576 0.638029 3.96906C1.16763 4.38045 1.86983 4.90296 4.28143 6.65491C4.7803 7.01902 5.62199 7.78505 6.46132 7.78032C7.30538 7.78742 8.16362 7.00483 8.64358 6.65491C11.0552 4.90296 11.755 4.37808 12.2846 3.96669ZM6.46132 7.02138C7.00984 7.03084 7.79952 6.331 8.19673 6.04256C11.3342 3.76573 11.573 3.56713 12.2964 2.99969C12.4336 2.8933 12.514 2.7278 12.514 2.55284V2.10362C12.514 1.47708 12.0056 0.96875 11.3791 0.96875H1.54356C0.917018 0.96875 0.408691 1.47708 0.408691 2.10362V2.55284C0.408691 2.7278 0.489078 2.89093 0.626208 2.99969C1.34969 3.56476 1.58848 3.76573 4.72592 6.04256C5.12312 6.331 5.9128 7.03084 6.46132 7.02138Z" fill="#FF5C00"/>
</svg>
