<svg width="11" height="12" viewBox="0 0 11 12" fill="none" xmlns="http://www.w3.org/2000/svg">
<path d="M9.60858 7.90295C8.91925 7.90295 8.25234 7.79087 7.63026 7.58911C7.43411 7.52186 7.21555 7.5723 7.06423 7.72362L6.18436 8.82766C4.59834 8.07108 3.11321 6.64199 2.323 4.99993L3.41584 4.06962C3.56716 3.9127 3.61199 3.69413 3.55034 3.49798C3.34298 2.87591 3.2365 2.209 3.2365 1.51967C3.2365 1.21704 2.98431 0.964844 2.68168 0.964844H0.742594C0.439962 0.964844 0.0756836 1.09935 0.0756836 1.51967C0.0756836 6.72605 4.4078 11.0526 9.60858 11.0526C10.0065 11.0526 10.1634 10.6995 10.1634 10.3913V8.45778C10.1634 8.15515 9.91121 7.90295 9.60858 7.90295Z" fill="#FF5C00"/>
</svg>
