<svg width="16" height="16" viewBox="0 0 16 16" fill="none" xmlns="http://www.w3.org/2000/svg">
<path fill-rule="evenodd" clip-rule="evenodd" d="M8.33373 13.6145C11.6143 13.6145 14.2737 10.9558 14.2737 7.67625C14.2737 4.39667 11.6143 1.73804 8.33373 1.73804C5.05319 1.73804 2.39379 4.39667 2.39379 7.67625C2.39379 7.87476 2.40354 8.071 2.42257 8.26452C2.42436 8.27574 2.4258 8.28709 2.42688 8.29857C2.42764 8.30669 2.42821 8.31478 2.4286 8.32284C2.43251 8.35894 2.43674 8.39493 2.4413 8.43083H2.42267C2.38579 8.66165 2.19681 8.84733 1.95329 8.87011L1.36421 8.92522C1.07555 8.95222 0.819578 8.74011 0.792476 8.45146C0.791828 8.44457 0.791317 8.43769 0.790941 8.43083H0.790035C0.765493 8.18263 0.75293 7.9309 0.75293 7.67625C0.75293 3.49071 4.14697 0.0976562 8.33373 0.0976562C12.5205 0.0976562 15.9145 3.49071 15.9145 7.67625C15.9145 11.8618 12.5205 15.2548 8.33373 15.2548C8.12378 15.2548 7.91583 15.2463 7.7102 15.2296V15.2047C7.48545 15.1289 7.32887 14.9109 7.34124 14.6623L7.3683 14.1186C7.37921 13.8992 7.51869 13.7167 7.7102 13.6402V13.599C7.76752 13.599 7.82763 13.6003 7.8889 13.6022C7.9053 13.6015 7.92187 13.6016 7.93858 13.6024C7.94915 13.6029 7.95964 13.6037 7.97003 13.6048L8.02196 13.6067C8.12862 13.6106 8.23527 13.6145 8.33373 13.6145ZM7.71112 3.44767L7.7102 3.37843L7.72358 3.37825C7.76645 3.22683 7.9057 3.1159 8.07085 3.1159H8.33511C8.4956 3.1159 8.63162 3.22066 8.67852 3.36553L8.69463 3.36531L8.75169 7.64344L12.6989 7.64344V8.62767H7.77583V8.2996L7.71203 3.5156C7.71066 3.50285 7.70996 3.4899 7.70996 3.47678C7.70996 3.46698 7.71035 3.45727 7.71112 3.44767ZM5.18045 14.5977C5.01133 14.5325 4.92705 14.3426 4.99222 14.1736L5.32262 13.3164C5.38779 13.1473 5.57772 13.0631 5.74684 13.1282L6.60427 13.4585C6.7734 13.5237 6.85767 13.7135 6.7925 13.8826L6.4621 14.7398C6.39694 14.9089 6.20701 14.9931 6.03788 14.928L5.18045 14.5977ZM2.6245 12.2702C2.49709 12.399 2.49829 12.6067 2.62719 12.7341L3.28069 13.3799C3.40958 13.5073 3.61737 13.5061 3.74478 13.3772L4.39076 12.7239C4.51818 12.5951 4.51698 12.3873 4.38808 12.2599L3.73458 11.6142C3.60568 11.4868 3.3979 11.488 3.27048 11.6168L2.6245 12.2702ZM1.13427 10.0941C1.06866 9.9252 1.15243 9.73511 1.32138 9.66952L2.17795 9.33697C2.3469 9.27138 2.53705 9.35513 2.60266 9.52403L2.9353 10.3803C3.00091 10.5493 2.91714 10.7393 2.74818 10.8049L1.89162 11.1375C1.72267 11.2031 1.53252 11.1193 1.46691 10.9504L1.13427 10.0941Z" fill="#00002B"/>
</svg>
