<svg width="15" height="16" viewBox="0 0 15 16" fill="none" xmlns="http://www.w3.org/2000/svg">
<path fill-rule="evenodd" clip-rule="evenodd" d="M12.4662 0.712826C11.6852 0.302713 10.7606 0.0976562 9.69246 0.0976562H4.97671C4.69814 0.0976562 4.47232 0.334596 4.47232 0.626876V15.1114C4.47232 15.4037 4.69814 15.6407 4.97671 15.6407H6.7589C7.03747 15.6407 7.26329 15.4037 7.26329 15.1114V10.6879C7.26329 10.3956 7.48911 10.1586 7.76768 10.1586H9.69246C10.7606 10.1586 11.6852 9.96021 12.4662 9.56332C13.2587 9.15321 13.8674 8.57112 14.2924 7.81704C14.7174 7.04973 14.9298 6.15674 14.9298 5.13808C14.9298 4.10618 14.7174 3.21319 14.2924 2.45911C13.8674 1.70503 13.2587 1.12294 12.4662 0.712826ZM11.4497 6.92405C11.0133 7.33416 10.3758 7.53922 9.53741 7.53922H7.76768C7.48911 7.53922 7.26329 7.30228 7.26329 7.01V3.24631C7.26329 2.95403 7.48911 2.71709 7.76768 2.71709H9.53741C10.3758 2.71709 11.0133 2.92876 11.4497 3.3521C11.8862 3.76221 12.1044 4.35754 12.1044 5.13808C12.1044 5.90538 11.8862 6.50071 11.4497 6.92405ZM2.90666 8.56415C3.18713 8.56415 3.4145 8.76519 3.4145 9.01318V10.232C3.4145 10.48 3.18713 10.681 2.90666 10.681H0.896022C0.615551 10.681 0.388184 10.48 0.388184 10.232V9.01318C0.388184 8.76519 0.615551 8.56415 0.896022 8.56415H2.90666ZM2.54392 11.7411C3.02473 11.7411 3.4145 11.9421 3.4145 12.1901V13.4089C3.4145 13.6569 3.02473 13.8579 2.54392 13.8579H1.25876C0.777955 13.8579 0.388184 13.6569 0.388184 13.4089V12.1901C0.388184 11.9421 0.777956 11.7411 1.25876 11.7411H2.54392ZM10.476 12.2157C10.476 11.9536 10.291 11.7411 10.0628 11.7411H7.8628C7.63462 11.7411 7.44965 11.9536 7.44965 12.2157V13.3833C7.44965 13.6454 7.63462 13.8579 7.8628 13.8579H10.0628C10.291 13.8579 10.476 13.6454 10.476 13.3833V12.2157Z" fill="#FF5C00"/>
</svg>
