<svg width="18" height="18" viewBox="0 0 18 18" fill="none" xmlns="http://www.w3.org/2000/svg">
<path d="M17.4335 14.9945L14.0938 11.6554C13.9431 11.5047 13.7388 11.421 13.5244 11.421C13.3026 11.421 13.175 11.163 13.2976 10.9782C14.028 9.87651 14.4523 8.55576 14.4523 7.13412C14.4523 3.28599 11.3337 0.167969 7.48492 0.167969C3.63613 0.167969 0.517578 3.28599 0.517578 7.13412C0.517578 10.9822 3.63613 14.1003 7.48492 14.1003C8.90685 14.1003 10.2279 13.676 11.3297 12.9457C11.5146 12.8232 11.7725 12.9508 11.7725 13.1726C11.7725 13.3869 11.8563 13.5912 12.007 13.7419L15.3466 17.081C15.6615 17.3958 16.1706 17.3958 16.4822 17.081L17.4301 16.1332C17.745 15.8184 17.745 15.3093 17.4335 14.9945ZM7.48492 11.421C5.11669 11.421 3.19732 9.50529 3.19732 7.13412C3.19732 4.7663 5.11334 2.84726 7.48492 2.84726C9.85314 2.84726 11.7725 4.76295 11.7725 7.13412C11.7725 9.50194 9.85649 11.421 7.48492 11.421Z" fill="#00002B" fill-opacity="0.8"/>
</svg>
