<svg width="22" height="16" viewBox="0 0 22 16" fill="none" xmlns="http://www.w3.org/2000/svg">
<path d="M20.7963 10.5764H20.3782V7.4329C20.3782 7.06359 20.458 6.70881 20.1562 6.44709L16.806 3.542C16.5041 3.28028 16.095 3.13197 15.6691 3.13197H14.1902V1.73614C14.1902 0.965519 13.4692 0.0976562 12.5805 0.0976562H3.99527C3.10657 0.0976562 2.38555 0.965519 2.38555 1.73614V3.13197H0.507545C0.359987 3.13197 0.239258 3.23666 0.239258 3.36461V3.82989C0.239258 3.95785 0.359987 4.06253 0.507545 4.06253H9.6293C9.77686 4.06253 9.89759 4.16722 9.89759 4.29517V4.76045C9.89759 4.8884 9.77686 4.99309 9.6293 4.99309H1.58069C1.43313 4.99309 1.31241 5.09778 1.31241 5.22573V5.69101C1.31241 5.81896 1.43313 5.92365 1.58069 5.92365H8.55615C8.70371 5.92365 8.82444 6.02834 8.82444 6.15629V6.62157C8.82444 6.74952 8.70371 6.85421 8.55615 6.85421H0.507545C0.359987 6.85421 0.239258 6.9589 0.239258 7.08685V7.55213C0.239258 7.68008 0.359987 7.78477 0.507545 7.78477H7.483C7.63056 7.78477 7.75129 7.88945 7.75129 8.01741V8.48269C7.75129 8.61064 7.63056 8.71533 7.483 8.71533H2.53886V10.5764V12.4376C2.53886 13.9788 3.82759 15.2292 5.60499 15.2292C7.3824 15.2292 8.82444 13.5135 8.82444 11.9723H13.117C13.117 13.5135 14.5591 15.2292 16.3365 15.2292C18.1139 15.2292 19.4723 13.8118 19.4723 12.2705H20.7963C21.0914 12.2705 21.4235 12.2282 21.4235 11.9723V11.0417C21.4235 10.7858 21.0914 10.5764 20.7963 10.5764ZM5.60499 13.8334C4.71629 13.8334 3.99527 13.2082 3.99527 12.4376C3.99527 11.6669 4.71629 11.0417 5.60499 11.0417C6.49369 11.0417 7.21472 11.6669 7.21472 12.4376C7.21472 13.2082 6.49369 13.8334 5.60499 13.8334ZM16.3365 13.8334C15.4478 13.8334 14.7267 13.2082 14.7267 12.4376C14.7267 11.6669 15.4478 11.0417 16.3365 11.0417C17.2252 11.0417 17.9462 11.6669 17.9462 12.4376C17.9462 13.2082 17.2252 13.8334 16.3365 13.8334ZM19.0193 7.78477H14.1902V4.52781H15.6691L19.0193 7.4329V7.78477Z" fill="#FF5C00"/>
</svg>
